<svg xmlns="http://www.w3.org/2000/svg" xmlns:xlink="http://www.w3.org/1999/xlink" width="16" zoomAndPan="magnify" viewBox="0 0 73.5 73.499996" height="16" preserveAspectRatio="xMidYMid meet" version="1.0"><defs><g/><clipPath id="8a50a44085"><path d="M 1 4 L 71 4 L 71 73.003906 L 1 73.003906 Z M 1 4 " clip-rule="nonzero"/></clipPath><clipPath id="b1a4eeffde"><path d="M 0.78125 3 L 69.796875 3 L 69.796875 65 L 0.78125 65 Z M 0.78125 3 " clip-rule="nonzero"/></clipPath><clipPath id="22b29f0b32"><rect x="0" width="70" y="0" height="70"/></clipPath></defs><g clip-path="url(#8a50a44085)"><g transform="matrix(1, 0, 0, 1, 1, 4)"><g clip-path="url(#22b29f0b32)"><path fill="#0096ff" d="M 53.164062 4.785156 C 44.585938 4.773438 34.269531 9.015625 25.128906 15.652344 C 33.21875 10.15625 42.105469 6.707031 49.578125 6.71875 C 63.582031 6.742188 67.324219 18.914062 57.9375 33.902344 C 48.546875 48.890625 29.585938 61.019531 15.582031 60.992188 C 8.105469 60.980469 3.558594 57.507812 2.367188 51.988281 C 3.179688 58.644531 8.164062 62.917969 16.742188 62.933594 C 31.746094 62.960938 52.058594 49.96875 62.117188 33.910156 C 72.175781 17.855469 68.167969 4.816406 53.164062 4.785156 Z M 53.164062 4.785156 " fill-opacity="1" fill-rule="nonzero"/><g clip-path="url(#b1a4eeffde)"><path fill="#0096ff" d="M 39.796875 6.4375 C 60.257812 -1.734375 73.746094 6.667969 68.367188 24.027344 C 63.292969 41.214844 40.859375 60.511719 21.980469 63.941406 C 9.875 66.308594 1.273438 61.59375 0.808594 52.179688 C 1.753906 62.503906 12.527344 66.738281 26.785156 62.164062 C 48.214844 55.511719 69.191406 32.816406 68.753906 16.710938 C 68.550781 4.542969 56.167969 0.226562 39.796875 6.4375 Z M 39.796875 6.4375 " fill-opacity="1" fill-rule="nonzero"/></g><g fill="#0096ff" fill-opacity="1"><g transform="translate(24.167835, 51.931947)"><g><path d="M 2.75 -31.921875 C 2.75 -32.929688 3.09375 -33.769531 3.78125 -34.4375 C 4.46875 -35.113281 5.269531 -35.453125 6.1875 -35.453125 C 7.132812 -35.453125 7.878906 -35.15625 8.421875 -34.5625 C 8.960938 -33.976562 9.234375 -33.242188 9.234375 -32.359375 C 9.234375 -31.515625 8.910156 -30.738281 8.265625 -30.03125 C 7.628906 -29.320312 6.773438 -28.96875 5.703125 -28.96875 C 4.816406 -28.96875 4.101562 -29.242188 3.5625 -29.796875 C 3.019531 -30.359375 2.75 -31.066406 2.75 -31.921875 Z M 1.03125 -19.890625 C 1.289062 -21.460938 1.363281 -22.554688 1.25 -23.171875 C 1.132812 -23.796875 1.078125 -24.109375 1.078125 -24.109375 C 1.078125 -24.109375 1.273438 -24.179688 1.671875 -24.328125 C 2.066406 -24.484375 2.722656 -24.5625 3.640625 -24.5625 C 5.535156 -24.5625 6.6875 -24.179688 7.09375 -23.421875 C 7.5 -22.671875 7.554688 -21.425781 7.265625 -19.6875 L 5.359375 -8.59375 C 5.128906 -7.125 5.203125 -6.035156 5.578125 -5.328125 C 5.953125 -4.617188 6.582031 -4.265625 7.46875 -4.265625 C 8.3125 -4.265625 9.222656 -4.648438 10.203125 -5.421875 C 11.191406 -6.191406 12 -7.234375 12.625 -8.546875 C 12.945312 -8.546875 13.195312 -8.445312 13.375 -8.25 C 13.5625 -8.050781 13.617188 -7.722656 13.546875 -7.265625 C 13.421875 -6.609375 13.117188 -5.867188 12.640625 -5.046875 C 12.171875 -4.234375 11.539062 -3.441406 10.75 -2.671875 C 9.96875 -1.898438 9.066406 -1.257812 8.046875 -0.75 C 7.035156 -0.25 5.941406 0 4.765625 0 C 3.054688 0 1.671875 -0.53125 0.609375 -1.59375 C -0.453125 -2.65625 -0.984375 -4.171875 -0.984375 -6.140625 C -0.984375 -6.628906 -0.945312 -7.28125 -0.875 -8.09375 C -0.8125 -8.914062 -0.703125 -9.816406 -0.546875 -10.796875 Z M 1.03125 -19.890625 "/></g></g></g></g></g></g></svg>
